<svg xmlns="http://www.w3.org/2000/svg" xmlns:xlink="http://www.w3.org/1999/xlink" viewBox="0 0 91 115" version="1.1" x="0px" y="0px"><title>drumstick</title><desc>Created with Sketch.</desc><g stroke="none" stroke-width="1" fill="none" fill-rule="evenodd"><g stroke="#000000"><g transform="translate(44.500000, 47.500000) rotate(-44.000000) translate(-44.500000, -47.500000) translate(26.000000, 15.000000)"><path d="M18.599134,42.7543106 C27.0150955,42.7543107 36,36.6253539 36,23.7443308 C36,10.8633077 24.6188231,0.421175253 18.5991342,0.421175253 C12.5794454,0.421175253 1.19826846,10.8633077 1.19826846,23.7443308 C1.19826846,36.6253539 10.1831725,42.7543105 18.599134,42.7543106 Z" stroke-width="2" transform="translate(18.599134, 21.587743) scale(1, -1) rotate(-1.000000) translate(-18.599134, -21.587743) "/><path d="M15.5308749,42.3740139 L15.530875,57.3420685 C15.530875,57.3420685 12.3766338,59.0620779 12.3766338,61.6982283 C12.3766338,64.3343786 15.4860565,65.2058165 18.3744547,63.0425867" stroke-width="2" stroke-linecap="round"/><path d="M21.5308749,42.4532738 L21.530875,57.3420685 C21.530875,57.3420685 18.3766338,59.0620779 18.3766338,61.6982283 C18.3766338,64.3343786 21.4860565,65.2058165 24.3744547,63.0425867" stroke-width="2" stroke-linecap="round" transform="translate(21.375544, 53.358743) scale(-1, 1) translate(-21.375544, -53.358743) "/><circle stroke-width="0.9504" fill="#000000" transform="translate(12.980800, 18.539425) rotate(2.000000) translate(-12.980800, -18.539425) " cx="12.9808" cy="18.539425" r="1.9008"/><circle stroke-width="0.9504" fill="#000000" transform="translate(25.019200, 18.539425) rotate(2.000000) translate(-25.019200, -18.539425) " cx="25.0192" cy="18.539425" r="1.9008"/><path d="M10.4464,25.5706108 C10.4464,25.5706108 18.7437801,34.026551 27.5536,25.509025" stroke-width="1.92" transform="translate(19.000000, 27.409825) rotate(2.000000) translate(-19.000000, -27.409825) "/></g></g></g><text x="0" y="107" fill="#000000" font-size="5px" font-weight="bold" font-family="'Helvetica Neue', Helvetica, Arial-Unicode, Arial, Sans-serif">Created by Kevin</text><text x="0" y="112" fill="#000000" font-size="5px" font-weight="bold" font-family="'Helvetica Neue', Helvetica, Arial-Unicode, Arial, Sans-serif">from the Noun Project</text></svg>